# xmcd
#
# Track frame offsets:
#	150
#	18731
#	35601
#	55252
#	73688
#	94969
#	123123
#	142786
#	163049
#	185218
#
# Disc length: 2733 seconds
# Revision: 0
# Processed by: cddbd v1.5.2PL0 Copyright (c) Steve Scherf et al.
# Submitted via: dBpowerAMP V12.0
#
DISCID=8d0aab0a
DTITLE=Dominique Bernier - Peyi An Mwen
DYEAR=2010
DGENRE=World
TTITLE0=Louisiana
TTITLE1=Rev
TTITLE2=Peyi An Mwen
TTITLE3=Tou Sa Mwen Envi
TTITLE4=Lewenne On Moun
TTITLE5=Petty Jane
TTITLE6=Enme
TTITLE7=Fanm
TTITLE8=Peyi An Mwen (unplugged)
TTITLE9=Body and Soul
EXTD=
EXTT0=
EXTT1=
EXTT2=
EXTT3=
EXTT4=
EXTT5=
EXTT6=
EXTT7=
EXTT8=
EXTT9=
PLAYORDER=
